<mxfile host="app.diagrams.net" modified="2021-09-28T18:04:10.132Z" agent="5.0 (Windows NT 10.0; Win64; x64) AppleWebKit/537.36 (KHTML, like Gecko) Chrome/93.0.4577.82 Safari/537.36" etag="BWJsw8G0uZc0UwEOSO0J" version="15.3.5" type="github" pages="5">
  <diagram id="prtHgNgQTEPvFCAcTncT" name="OCIO-org chart">
    <mxGraphModel dx="3600" dy="1500" grid="1" gridSize="10" guides="1" tooltips="1" connect="1" arrows="1" fold="1" page="1" pageScale="1" pageWidth="827" pageHeight="1169" math="0" shadow="0">
      <root>
        <mxCell id="0" />
        <mxCell id="1" parent="0" />
        <mxCell id="dNxyNK7c78bLwvsdeMH5-11" value="OCIO Security Groups&amp;nbsp;" style="swimlane;html=1;startSize=20;horizontal=1;containerType=tree;glass=0;metaEdit=1;dropTarget=0;swimlaneLine=1;swimlaneFillColor=none;" parent="1" vertex="1">
          <mxGeometry x="210" y="89" width="980" height="641" as="geometry" />
        </mxCell>
        <UserObject label="%name%&lt;br&gt;&lt;i style=&quot;color: gray ; font-size: 11px&quot;&gt;%position%&lt;/i&gt;&lt;br&gt;&lt;a href=&quot;mailto:%email%&quot; style=&quot;font-size: 11px&quot;&gt;Email&lt;/a&gt;" name="CJ Ritchie" position="Associate Deputy Minister &amp; Government Chief Information Officer (GCIO)" email="CJ.Ritchie@gov.bc.ca" placeholders="1" organization="CIO - Office of the Associate Deputy Minister and Government Chief Information Officer&#xa;" id="dNxyNK7c78bLwvsdeMH5-12">
          <mxCell style="label;whiteSpace=wrap;html=1;rounded=0;glass=0;treeMoving=1;treeFolding=1;gradientColor=#ffffff;fillColor=default;dropTarget=1;metaEdit=1;comic=0;expand=1;container=0;noLabel=0;portConstraintRotation=0;connectable=1;snapToPoint=0;" parent="dNxyNK7c78bLwvsdeMH5-11" vertex="1">
            <mxGeometry x="220" y="50" width="270" height="70" as="geometry" />
          </mxCell>
        </UserObject>
        <mxCell id="dNxyNK7c78bLwvsdeMH5-13" value="" style="endArrow=blockThin;endFill=1;fontSize=11;edgeStyle=elbowEdgeStyle;elbow=vertical;rounded=0;" parent="dNxyNK7c78bLwvsdeMH5-11" source="dNxyNK7c78bLwvsdeMH5-12" target="dNxyNK7c78bLwvsdeMH5-14" edge="1">
          <mxGeometry relative="1" as="geometry" />
        </mxCell>
        <UserObject label="%name%&lt;br&gt;&lt;i style=&quot;color: gray ; font-size: 11px&quot;&gt;%position%&lt;/i&gt;&lt;br&gt;&lt;a href=&quot;mailto:%email%&quot;&gt;Email&lt;/a&gt;" name="Hayden Lansdell" position="Assistant Deputy Minister(ADM)" email="hayden.lansdell@gov.bc.ca" placeholders="1" organization="DPD - Digital Platform and Data" id="dNxyNK7c78bLwvsdeMH5-14">
          <mxCell style="label;whiteSpace=wrap;html=1;rounded=0;glass=0;treeFolding=1;treeMoving=1;imageAspect=1;" parent="dNxyNK7c78bLwvsdeMH5-11" vertex="1">
            <mxGeometry x="40" y="180" width="210" height="70" as="geometry" />
          </mxCell>
        </UserObject>
        <mxCell id="dNxyNK7c78bLwvsdeMH5-15" value="" style="endArrow=blockThin;endFill=1;fontSize=11;edgeStyle=elbowEdgeStyle;elbow=vertical;rounded=0;" parent="dNxyNK7c78bLwvsdeMH5-11" source="dNxyNK7c78bLwvsdeMH5-12" target="dNxyNK7c78bLwvsdeMH5-16" edge="1">
          <mxGeometry relative="1" as="geometry" />
        </mxCell>
        <UserObject label="%name%&lt;br&gt;&lt;i style=&quot;color: gray ; font-size: 11px&quot;&gt;%position%&lt;/i&gt;&lt;br&gt;&lt;a href=&quot;mailto:%email%&quot;&gt;Email&lt;/a&gt;" name="Alex MacLennan" position="Assistant Deputy Minister (ADM)" email="Alex.MacLennan@gov.bc.ca" placeholders="1" organization="ES-ADMO - OCIO Enterprise Services" id="dNxyNK7c78bLwvsdeMH5-16">
          <mxCell style="label;whiteSpace=wrap;html=1;rounded=0;glass=0;treeFolding=1;treeMoving=1;" parent="dNxyNK7c78bLwvsdeMH5-11" vertex="1">
            <mxGeometry x="490" y="180" width="180" height="80" as="geometry" />
          </mxCell>
        </UserObject>
        <mxCell id="v73PsxsPgjeirW-ovo98-2" value="" style="endArrow=blockThin;endFill=1;fontSize=11;edgeStyle=elbowEdgeStyle;elbow=vertical;rounded=0;entryX=0.5;entryY=0;entryDx=0;entryDy=0;" parent="dNxyNK7c78bLwvsdeMH5-11" target="v73PsxsPgjeirW-ovo98-3" edge="1">
          <mxGeometry relative="1" as="geometry">
            <mxPoint x="145" y="250" as="sourcePoint" />
          </mxGeometry>
        </mxCell>
        <UserObject label="%name%&lt;br&gt;&lt;i style=&quot;color: gray ; font-size: 11px&quot;&gt;%position%&lt;/i&gt;&lt;br&gt;&lt;a href=&quot;mailto:%email%&quot;&gt;Email&lt;/a&gt;" name="Savannah Murphy" position="Ministry Chief Information Officer (MCIO)&#xa;$ &#xa;Executive Director (ED)" email="Savannah.Murphy@gov.bc.ca" placeholders="1" organization="Information Management Branch" id="v73PsxsPgjeirW-ovo98-3">
          <mxCell style="label;whiteSpace=wrap;html=1;rounded=0;glass=0;treeFolding=1;treeMoving=1;" parent="dNxyNK7c78bLwvsdeMH5-11" vertex="1">
            <mxGeometry x="40" y="300" width="210" height="100" as="geometry" />
          </mxCell>
        </UserObject>
        <mxCell id="v73PsxsPgjeirW-ovo98-4" value="" style="endArrow=blockThin;endFill=1;fontSize=11;edgeStyle=elbowEdgeStyle;elbow=vertical;rounded=0;" parent="dNxyNK7c78bLwvsdeMH5-11" source="v73PsxsPgjeirW-ovo98-3" target="v73PsxsPgjeirW-ovo98-5" edge="1">
          <mxGeometry relative="1" as="geometry">
            <mxPoint x="170" y="330" as="sourcePoint" />
          </mxGeometry>
        </mxCell>
        <UserObject label="%name%&lt;br&gt;&lt;i style=&quot;color: gray ; font-size: 11px&quot;&gt;%position%&lt;/i&gt;&lt;br&gt;&lt;a href=&quot;mailto:%email%&quot;&gt;Email&lt;/a&gt;" name="Dan Lathigee" position="Director &amp; Ministry Privacy Officer (MPO)&#xa;" email="Dan.Lathigee@gov.bc.ca" placeholders="1" organization="IMB Information Privacy and Security" id="v73PsxsPgjeirW-ovo98-5">
          <mxCell style="label;whiteSpace=wrap;html=1;rounded=0;glass=0;treeFolding=1;treeMoving=1;" parent="dNxyNK7c78bLwvsdeMH5-11" vertex="1">
            <mxGeometry x="40" y="440" width="210" height="110" as="geometry" />
          </mxCell>
        </UserObject>
        <mxCell id="v73PsxsPgjeirW-ovo98-14" value="" style="endArrow=blockThin;endFill=1;fontSize=11;edgeStyle=elbowEdgeStyle;elbow=vertical;rounded=0;" parent="dNxyNK7c78bLwvsdeMH5-11" source="dNxyNK7c78bLwvsdeMH5-16" target="v73PsxsPgjeirW-ovo98-15" edge="1">
          <mxGeometry relative="1" as="geometry">
            <mxPoint x="395" y="200" as="sourcePoint" />
          </mxGeometry>
        </mxCell>
        <UserObject label="%name%&lt;br&gt;&lt;i style=&quot;color: gray ; font-size: 11px&quot;&gt;%position%&lt;/i&gt;&lt;br&gt;&lt;a href=&quot;mailto:%email%&quot;&gt;Email&lt;/a&gt;" name="Gary Perkins" position="Executive Director &#xa;&amp;&#xa;Chief Information Security Officer (CISO)" email="Gary.Perkins@gov.bc.ca" placeholders="1" organization="ES-ISB - Information Security" id="v73PsxsPgjeirW-ovo98-15">
          <mxCell style="label;whiteSpace=wrap;html=1;rounded=0;glass=0;treeFolding=1;treeMoving=1;" parent="dNxyNK7c78bLwvsdeMH5-11" vertex="1">
            <mxGeometry x="490" y="300" width="180" height="100" as="geometry" />
          </mxCell>
        </UserObject>
        <mxCell id="v73PsxsPgjeirW-ovo98-22" value="" style="endArrow=blockThin;endFill=1;fontSize=11;edgeStyle=elbowEdgeStyle;elbow=vertical;rounded=0;" parent="dNxyNK7c78bLwvsdeMH5-11" source="v73PsxsPgjeirW-ovo98-15" target="v73PsxsPgjeirW-ovo98-23" edge="1">
          <mxGeometry relative="1" as="geometry">
            <mxPoint x="622" y="322" as="sourcePoint" />
          </mxGeometry>
        </mxCell>
        <UserObject label="%name%&lt;br&gt;&lt;i style=&quot;color: gray ; font-size: 11px&quot;&gt;%position%&lt;/i&gt;&lt;br&gt;&lt;a href=&quot;mailto:%email%&quot;&gt;Email&lt;/a&gt;" name="Dale Land" position="Director, Cyber Intelligence and Investigation" email="Dale.Land@gov.bc.ca" placeholders="1" organization="ITSECOPS - IT Security Operations&#xa;&amp;&#xa;SIIRT - Security Investigations and Incident Response" id="v73PsxsPgjeirW-ovo98-23">
          <mxCell style="label;whiteSpace=wrap;html=1;rounded=0;glass=0;treeFolding=1;treeMoving=1;" parent="dNxyNK7c78bLwvsdeMH5-11" vertex="1">
            <mxGeometry x="510" y="445" width="180" height="100" as="geometry" />
          </mxCell>
        </UserObject>
        <mxCell id="v73PsxsPgjeirW-ovo98-24" value="" style="endArrow=blockThin;endFill=1;fontSize=11;edgeStyle=elbowEdgeStyle;elbow=vertical;rounded=0;" parent="dNxyNK7c78bLwvsdeMH5-11" source="v73PsxsPgjeirW-ovo98-15" target="v73PsxsPgjeirW-ovo98-25" edge="1">
          <mxGeometry relative="1" as="geometry">
            <mxPoint x="622" y="322" as="sourcePoint" />
            <Array as="points">
              <mxPoint x="780" y="423" />
            </Array>
          </mxGeometry>
        </mxCell>
        <UserObject label="%name%&lt;br&gt;&lt;i style=&quot;color: gray ; font-size: 11px&quot;&gt;%position%&lt;/i&gt;&lt;br&gt;&lt;a href=&quot;mailto:%email%&quot;&gt;Email&lt;/a&gt;" name="Don Costello" position="Director, Information Security" email="Don.Costello@gov.bc.ca" placeholders="1" organization="ADVSVCS - Advisory Services" id="v73PsxsPgjeirW-ovo98-25">
          <mxCell style="label;whiteSpace=wrap;html=1;rounded=0;glass=0;treeFolding=1;treeMoving=1;" parent="dNxyNK7c78bLwvsdeMH5-11" vertex="1">
            <mxGeometry x="720" y="445" width="180" height="100" as="geometry" />
          </mxCell>
        </UserObject>
        <mxCell id="uYkX0x8CzJpUBdpPmqX0-5" value="" style="endArrow=blockThin;endFill=1;fontSize=11;edgeStyle=elbowEdgeStyle;elbow=vertical;rounded=0;" parent="dNxyNK7c78bLwvsdeMH5-11" source="v73PsxsPgjeirW-ovo98-15" target="uYkX0x8CzJpUBdpPmqX0-6" edge="1">
          <mxGeometry relative="1" as="geometry">
            <mxPoint x="790" y="489" as="sourcePoint" />
          </mxGeometry>
        </mxCell>
        <UserObject label="%name%&lt;br&gt;&lt;i style=&quot;color: gray ; font-size: 11px&quot;&gt;%position%&lt;/i&gt;&lt;br&gt;&lt;a href=&quot;mailto:%email%&quot;&gt;Email&lt;/a&gt;" name="Jesse Piccin" position="Director, Access and Directory Services" email="Jesse.Piccin@gov.bc.ca" placeholders="1" organization="ADMS - Access &amp; Directory Management Services" id="uYkX0x8CzJpUBdpPmqX0-6">
          <mxCell style="label;whiteSpace=wrap;html=1;rounded=0;glass=0;treeFolding=1;treeMoving=1;" parent="dNxyNK7c78bLwvsdeMH5-11" vertex="1">
            <mxGeometry x="300" y="445" width="180" height="100" as="geometry" />
          </mxCell>
        </UserObject>
      </root>
    </mxGraphModel>
  </diagram>
  <diagram id="ucI1gstZumHgKtb_26d9" name="ISP-Information Privacy and Security org chart">
    <mxGraphModel dx="5560" dy="3100" grid="1" gridSize="10" guides="1" tooltips="1" connect="1" arrows="1" fold="1" page="1" pageScale="1" pageWidth="850" pageHeight="1100" math="0" shadow="0">
      <root>
        <mxCell id="qZ4l3li3OhjKVmUn_5Yf-0" />
        <mxCell id="qZ4l3li3OhjKVmUn_5Yf-1" parent="qZ4l3li3OhjKVmUn_5Yf-0" />
        <mxCell id="t5G5uh1Kp2x6xLm8tgiS-2" value="" style="group" vertex="1" connectable="0" parent="qZ4l3li3OhjKVmUn_5Yf-1">
          <mxGeometry x="-3160" y="-2090" width="850" height="746" as="geometry" />
        </mxCell>
        <UserObject label="Garry Mierzuak&lt;br&gt;&lt;i style=&quot;color: gray&quot;&gt;&lt;font style=&quot;font-size: 11px&quot;&gt;Ministry Information Security Officer (MISO)&lt;/font&gt;&lt;/i&gt;&lt;br&gt;&lt;a href=&quot;mailto:Garry.Mierzuak@gov.bc.ca&quot;&gt;Email&lt;/a&gt;" name="Garry Mierzuak" position="Ministry Information Security Officer (MISO)" email="Garry.Mierzuak@gov.bc.ca" placeholders="1" organization="IMB Information Privacy and Security" id="SdTfen1lz5qg2SUIvMbw-0">
          <mxCell style="label;whiteSpace=wrap;html=1;rounded=0;glass=0;treeFolding=1;treeMoving=1;" parent="t5G5uh1Kp2x6xLm8tgiS-2" vertex="1">
            <mxGeometry x="350" y="316" width="210" height="100" as="geometry" />
          </mxCell>
        </UserObject>
        <mxCell id="dvrZ-WcR8MNvTjGQvd33-0" value="" style="endArrow=blockThin;endFill=1;fontSize=11;edgeStyle=elbowEdgeStyle;elbow=vertical;rounded=0;exitX=0.5;exitY=1;exitDx=0;exitDy=0;" parent="t5G5uh1Kp2x6xLm8tgiS-2" source="SdTfen1lz5qg2SUIvMbw-0" target="dvrZ-WcR8MNvTjGQvd33-1" edge="1">
          <mxGeometry relative="1" as="geometry">
            <mxPoint x="187" y="970" as="sourcePoint" />
          </mxGeometry>
        </mxCell>
        <UserObject label="Paul Rai&lt;br&gt;&lt;i style=&quot;color: gray ; font-size: 11px&quot;&gt;Senior Security Analyst&lt;/i&gt;&lt;br&gt;&lt;a href=&quot;mailto:Paul.Rai@gov.bc.ca&quot;&gt;Email&lt;/a&gt;" name="Paul Rai" position="Senior Security Analyst" email="Paul.Rai@gov.bc.ca" placeholders="1" organization="IMB Information Privacy and Security" id="dvrZ-WcR8MNvTjGQvd33-1">
          <mxCell style="label;whiteSpace=wrap;html=1;rounded=0;glass=0;treeFolding=1;treeMoving=1;" parent="t5G5uh1Kp2x6xLm8tgiS-2" vertex="1">
            <mxGeometry x="350" y="576" width="210" height="100" as="geometry" />
          </mxCell>
        </UserObject>
        <mxCell id="dvrZ-WcR8MNvTjGQvd33-2" value="" style="endArrow=blockThin;endFill=1;fontSize=11;edgeStyle=elbowEdgeStyle;elbow=vertical;rounded=0;exitX=0.5;exitY=1;exitDx=0;exitDy=0;" parent="t5G5uh1Kp2x6xLm8tgiS-2" source="SdTfen1lz5qg2SUIvMbw-0" target="dvrZ-WcR8MNvTjGQvd33-3" edge="1">
          <mxGeometry relative="1" as="geometry">
            <mxPoint x="187" y="970" as="sourcePoint" />
            <Array as="points">
              <mxPoint x="500" y="466" />
              <mxPoint x="450" y="746" />
            </Array>
          </mxGeometry>
        </mxCell>
        <UserObject label="Ariadne Powell&lt;br&gt;&lt;i style=&quot;color: gray ; font-size: 11px&quot;&gt;Senior Security Analyst&lt;/i&gt;&lt;br&gt;&lt;a href=&quot;mailto:Ariadne.Powell@gov.bc.ca&quot;&gt;Email&lt;/a&gt;" name="Ariadne Powell" position="Senior Security Analyst" email="Ariadne.Powell@gov.bc.ca" placeholders="1" organization="IMB Information Privacy and Security" id="dvrZ-WcR8MNvTjGQvd33-3">
          <mxCell style="label;whiteSpace=wrap;html=1;rounded=0;glass=0;treeFolding=1;treeMoving=1;" parent="t5G5uh1Kp2x6xLm8tgiS-2" vertex="1">
            <mxGeometry x="600" y="576" width="210" height="100" as="geometry" />
          </mxCell>
        </UserObject>
        <UserObject label="Calder Brown&lt;br&gt;&lt;i style=&quot;color: gray ; font-size: 11px&quot;&gt;Senior Security Analyst&lt;/i&gt;&lt;br&gt;&lt;a href=&quot;mailto:Calder.Brown@gov.bc.ca&quot;&gt;Email&lt;/a&gt;" name="Calder Brown" position="Senior Security Analyst" email="Calder.Brown@gov.bc.ca" placeholders="1" organization="IMB Information Privacy and Security" id="dvrZ-WcR8MNvTjGQvd33-4">
          <mxCell style="label;whiteSpace=wrap;html=1;rounded=0;glass=0;treeFolding=1;treeMoving=1;" parent="t5G5uh1Kp2x6xLm8tgiS-2" vertex="1">
            <mxGeometry x="100" y="576" width="210" height="100" as="geometry" />
          </mxCell>
        </UserObject>
        <mxCell id="dvrZ-WcR8MNvTjGQvd33-5" value="" style="endArrow=blockThin;endFill=1;fontSize=11;edgeStyle=elbowEdgeStyle;elbow=vertical;rounded=0;exitX=0.5;exitY=1;exitDx=0;exitDy=0;entryX=0.5;entryY=0;entryDx=0;entryDy=0;" parent="t5G5uh1Kp2x6xLm8tgiS-2" source="SdTfen1lz5qg2SUIvMbw-0" target="dvrZ-WcR8MNvTjGQvd33-4" edge="1">
          <mxGeometry relative="1" as="geometry">
            <mxPoint x="445" y="706" as="sourcePoint" />
            <mxPoint x="705" y="806" as="targetPoint" />
            <Array as="points">
              <mxPoint x="380" y="466" />
              <mxPoint x="310" y="746" />
            </Array>
          </mxGeometry>
        </mxCell>
        <mxCell id="oMF8QTFkqLxiqysbtOMA-1" value="" style="endArrow=blockThin;endFill=1;fontSize=11;edgeStyle=elbowEdgeStyle;elbow=vertical;rounded=0;exitX=0.5;exitY=1;exitDx=0;exitDy=0;" parent="t5G5uh1Kp2x6xLm8tgiS-2" source="R9Cr3xqox11sZa4VE1uC-0" edge="1">
          <mxGeometry relative="1" as="geometry">
            <mxPoint x="355" y="875" as="sourcePoint" />
            <mxPoint x="455" y="316" as="targetPoint" />
          </mxGeometry>
        </mxCell>
        <mxCell id="1ly8iMYacWjRFcpsfIwy-0" value="ISP-Information Privacy and Security" style="swimlane;html=1;startSize=20;horizontal=1;containerType=tree;glass=0;" parent="t5G5uh1Kp2x6xLm8tgiS-2" vertex="1">
          <mxGeometry width="850" height="730" as="geometry" />
        </mxCell>
        <UserObject label="Dan Lathigee&lt;br&gt;&lt;i style=&quot;color: gray&quot;&gt;&lt;font style=&quot;font-size: 11px&quot;&gt;Director &amp;amp; Ministry Privacy Officer (MPO)&lt;/font&gt;&lt;br&gt;&lt;/i&gt;&lt;br&gt;&lt;a href=&quot;mailto:Dan.Lathigee@gov.bc.ca&quot;&gt;Email&lt;/a&gt;" name="Dan Lathigee" position="Director &amp; Ministry Privacy Officer (MPO)&#xa;" email="Dan.Lathigee@gov.bc.ca" placeholders="1" organization="IMB Information Privacy and Security" id="R9Cr3xqox11sZa4VE1uC-0">
          <mxCell style="label;whiteSpace=wrap;html=1;rounded=0;glass=0;treeFolding=1;treeMoving=1;" parent="1ly8iMYacWjRFcpsfIwy-0" vertex="1">
            <mxGeometry x="350" y="130" width="210" height="110" as="geometry" />
          </mxCell>
        </UserObject>
      </root>
    </mxGraphModel>
  </diagram>
  <diagram id="vDOXWKOzfigFdYHw0v1W" name="Advisory Services">
    <mxGraphModel dx="2160" dy="3100" grid="1" gridSize="10" guides="1" tooltips="1" connect="1" arrows="1" fold="1" page="1" pageScale="1" pageWidth="850" pageHeight="1100" math="0" shadow="0">
      <root>
        <mxCell id="rqQ3qo8qsGK3bOTKJYbh-0" />
        <mxCell id="rqQ3qo8qsGK3bOTKJYbh-1" parent="rqQ3qo8qsGK3bOTKJYbh-0" />
        <mxCell id="aBYGzrm7MAsTsmHFoliY-2" value="" style="group" vertex="1" connectable="0" parent="rqQ3qo8qsGK3bOTKJYbh-1">
          <mxGeometry x="240" y="-2120" width="1840" height="730" as="geometry" />
        </mxCell>
        <UserObject label="Brian Horncastle&lt;br&gt;&lt;i style=&quot;color: gray ; font-size: 11px&quot;&gt;Manager, VRM&lt;/i&gt;&lt;br&gt;&lt;a href=&quot;mailto:Brian.Horncastle@gov.bc.ca&quot;&gt;Email&lt;/a&gt;" name="Brian Horncastle" position="Manager, VRM" email="Brian.Horncastle@gov.bc.ca" placeholders="1" organization=" VRM - Vulnerability &amp; Risk Management" id="T802JfDfkw4rmRlnb9Lm-0">
          <mxCell style="label;whiteSpace=wrap;html=1;rounded=0;glass=0;treeFolding=1;treeMoving=1;" parent="aBYGzrm7MAsTsmHFoliY-2" vertex="1">
            <mxGeometry x="440" y="270" width="180" height="100" as="geometry" />
          </mxCell>
        </UserObject>
        <UserObject label="Ryan Bluemel&lt;br&gt;&lt;i style=&quot;color: gray ; font-size: 11px&quot;&gt;Senior Security Analyst&lt;/i&gt;&lt;br&gt;&lt;a href=&quot;mailto:Ryan.Bluemel@gov.bc.ca&quot;&gt;Email&lt;/a&gt;" name="Ryan Bluemel" position="Senior Security Analyst" email="Ryan.Bluemel@gov.bc.ca" placeholders="1" organization="VRM - Vulnerability &amp; Risk Management" id="T802JfDfkw4rmRlnb9Lm-1">
          <mxCell style="label;whiteSpace=wrap;html=1;rounded=0;glass=0;treeFolding=1;treeMoving=1;" parent="aBYGzrm7MAsTsmHFoliY-2" vertex="1">
            <mxGeometry x="40" y="430" width="180" height="100" as="geometry" />
          </mxCell>
        </UserObject>
        <UserObject label="Michael Foltinek&lt;br&gt;&lt;i style=&quot;color: gray ; font-size: 11px&quot;&gt;Senior Security Architect&lt;/i&gt;&lt;br&gt;&lt;a href=&quot;mailto:Michael.Foltinek@gov.bc.ca&quot;&gt;Email&lt;/a&gt;" name="Michael Foltinek" position="Senior Security Architect" email="Michael.Foltinek@gov.bc.ca" placeholders="1" organization="VRM - Vulnerability &amp; Risk Management" id="T802JfDfkw4rmRlnb9Lm-2">
          <mxCell style="label;whiteSpace=wrap;html=1;rounded=0;glass=0;treeFolding=1;treeMoving=1;" parent="aBYGzrm7MAsTsmHFoliY-2" vertex="1">
            <mxGeometry x="230" y="430" width="180" height="100" as="geometry" />
          </mxCell>
        </UserObject>
        <UserObject label="Joe Lopetrone&lt;br&gt;&lt;i style=&quot;color: gray ; font-size: 11px&quot;&gt;Senior Security Analyst&lt;/i&gt;&lt;br&gt;&lt;a href=&quot;mailto:&quot;&gt;Email&lt;/a&gt;" name="Joe Lopetrone" position="Senior Security Analyst" email="" placeholders="1" organization="VRM - Vulnerability &amp; Risk Management" id="T802JfDfkw4rmRlnb9Lm-3">
          <mxCell style="label;whiteSpace=wrap;html=1;rounded=0;glass=0;treeFolding=1;treeMoving=1;" parent="aBYGzrm7MAsTsmHFoliY-2" vertex="1">
            <mxGeometry x="420" y="430" width="180" height="100" as="geometry" />
          </mxCell>
        </UserObject>
        <UserObject label="Gary Merrick&lt;br&gt;&lt;i style=&quot;color: gray ; font-size: 11px&quot;&gt;Senior Security Analyst&lt;/i&gt;&lt;br&gt;&lt;a href=&quot;mailto:Gary.Merrick@gov.bc.ca&quot;&gt;Email&lt;/a&gt;" name="Gary Merrick" position="Senior Security Analyst" email="Gary.Merrick@gov.bc.ca" placeholders="1" organization="VRM - Vulnerability &amp; Risk Management" id="T802JfDfkw4rmRlnb9Lm-4">
          <mxCell style="label;whiteSpace=wrap;html=1;rounded=0;glass=0;treeFolding=1;treeMoving=1;" parent="aBYGzrm7MAsTsmHFoliY-2" vertex="1">
            <mxGeometry x="620" y="430" width="170" height="100" as="geometry" />
          </mxCell>
        </UserObject>
        <UserObject label="Don Costello&lt;br&gt;&lt;i style=&quot;color: gray ; font-size: 11px&quot;&gt;Director, Information Security&lt;/i&gt;&lt;br&gt;&lt;a href=&quot;mailto:Don.Costello@gov.bc.ca&quot;&gt;Email&lt;/a&gt;" name="Don Costello" position="Director, Information Security" email="Don.Costello@gov.bc.ca" placeholders="1" organization="ADVSVCS - Advisory Services" id="xZGKURcxJj9vhPXbA276-0">
          <mxCell style="label;whiteSpace=wrap;html=1;rounded=0;glass=0;treeFolding=1;treeMoving=1;" parent="aBYGzrm7MAsTsmHFoliY-2" vertex="1">
            <mxGeometry x="640" y="110" width="180" height="80" as="geometry" />
          </mxCell>
        </UserObject>
        <mxCell id="XgKBMb3x8BXF8PC0vtIP-0" value="" style="endArrow=blockThin;endFill=1;fontSize=11;edgeStyle=elbowEdgeStyle;elbow=vertical;rounded=0;entryX=0.5;entryY=0;entryDx=0;entryDy=0;exitX=0.5;exitY=1;exitDx=0;exitDy=0;" parent="aBYGzrm7MAsTsmHFoliY-2" source="xZGKURcxJj9vhPXbA276-0" target="T802JfDfkw4rmRlnb9Lm-0" edge="1">
          <mxGeometry relative="1" as="geometry">
            <mxPoint x="710" y="220" as="sourcePoint" />
            <mxPoint x="520" y="270" as="targetPoint" />
          </mxGeometry>
        </mxCell>
        <mxCell id="XgKBMb3x8BXF8PC0vtIP-1" value="" style="endArrow=blockThin;endFill=1;fontSize=11;edgeStyle=elbowEdgeStyle;elbow=vertical;rounded=0;exitX=0.5;exitY=1;exitDx=0;exitDy=0;entryX=0.5;entryY=0;entryDx=0;entryDy=0;" parent="aBYGzrm7MAsTsmHFoliY-2" source="xZGKURcxJj9vhPXbA276-0" target="lxsl5r0ngIAoYixiZqqR-0" edge="1">
          <mxGeometry relative="1" as="geometry">
            <mxPoint x="710" y="220" as="sourcePoint" />
            <mxPoint x="790" y="270" as="targetPoint" />
            <Array as="points">
              <mxPoint x="850" y="230" />
            </Array>
          </mxGeometry>
        </mxCell>
        <mxCell id="FQNXtCQWKW9u08r3h9mG-0" value="" style="endArrow=blockThin;endFill=1;fontSize=11;edgeStyle=elbowEdgeStyle;elbow=vertical;rounded=0;exitX=0.5;exitY=1;exitDx=0;exitDy=0;entryX=0.5;entryY=0;entryDx=0;entryDy=0;" parent="aBYGzrm7MAsTsmHFoliY-2" source="T802JfDfkw4rmRlnb9Lm-0" target="T802JfDfkw4rmRlnb9Lm-1" edge="1">
          <mxGeometry relative="1" as="geometry">
            <mxPoint x="140" y="390" as="sourcePoint" />
            <mxPoint x="140" y="430" as="targetPoint" />
          </mxGeometry>
        </mxCell>
        <mxCell id="FQNXtCQWKW9u08r3h9mG-1" value="" style="endArrow=blockThin;endFill=1;fontSize=11;edgeStyle=elbowEdgeStyle;elbow=vertical;rounded=0;" parent="aBYGzrm7MAsTsmHFoliY-2" edge="1">
          <mxGeometry relative="1" as="geometry">
            <mxPoint x="530" y="380" as="sourcePoint" />
            <mxPoint x="320" y="430" as="targetPoint" />
            <Array as="points">
              <mxPoint x="430" y="400" />
            </Array>
          </mxGeometry>
        </mxCell>
        <mxCell id="FQNXtCQWKW9u08r3h9mG-2" value="" style="endArrow=blockThin;endFill=1;fontSize=11;edgeStyle=elbowEdgeStyle;elbow=vertical;rounded=0;entryX=0.5;entryY=0;entryDx=0;entryDy=0;" parent="aBYGzrm7MAsTsmHFoliY-2" target="T802JfDfkw4rmRlnb9Lm-3" edge="1">
          <mxGeometry relative="1" as="geometry">
            <mxPoint x="530" y="370" as="sourcePoint" />
            <mxPoint x="520" y="430" as="targetPoint" />
            <Array as="points">
              <mxPoint x="540" y="400" />
            </Array>
          </mxGeometry>
        </mxCell>
        <mxCell id="FQNXtCQWKW9u08r3h9mG-3" value="" style="endArrow=blockThin;endFill=1;fontSize=11;edgeStyle=elbowEdgeStyle;elbow=vertical;rounded=0;" parent="aBYGzrm7MAsTsmHFoliY-2" edge="1">
          <mxGeometry relative="1" as="geometry">
            <mxPoint x="530" y="370" as="sourcePoint" />
            <mxPoint x="710" y="430" as="targetPoint" />
          </mxGeometry>
        </mxCell>
        <mxCell id="-0Sq7_ZNC0-nOio30Pgc-0" value="Advisory Services" style="swimlane;html=1;startSize=20;horizontal=1;containerType=tree;glass=0;" parent="aBYGzrm7MAsTsmHFoliY-2" vertex="1">
          <mxGeometry width="1840" height="730" as="geometry" />
        </mxCell>
        <UserObject label="Trace Muldoon&lt;br&gt;&lt;i style=&quot;color: gray ; font-size: 11px&quot;&gt;Manager, Security Governance $ Engagement/Awareness&lt;/i&gt;&lt;br&gt;&lt;a href=&quot;mailto:Trace.Muldoon@gov.bc.ca&quot;&gt;Email&lt;/a&gt;" name="Trace Muldoon" position="Manager, Security Governance $ Engagement/Awareness" email="Trace.Muldoon@gov.bc.ca" placeholders="1" organization="SECAWARE - Security Awareness" id="lxsl5r0ngIAoYixiZqqR-0">
          <mxCell style="label;whiteSpace=wrap;html=1;rounded=0;glass=0;treeFolding=1;treeMoving=1;" parent="-0Sq7_ZNC0-nOio30Pgc-0" vertex="1">
            <mxGeometry x="860" y="260" width="220" height="100" as="geometry" />
          </mxCell>
        </UserObject>
        <UserObject label="Bonnie Beyea&lt;br&gt;&lt;i style=&quot;color: gray ; font-size: 11px&quot;&gt;Senior Security Analyst&lt;/i&gt;&lt;br&gt;&lt;a href=&quot;mailto:Bonnie.Beyea@gov.bc.ca&quot;&gt;Email&lt;/a&gt;" name="Bonnie Beyea" position="Senior Security Analyst" email="Bonnie.Beyea@gov.bc.ca" placeholders="1" organization="SECAWARE - Security Awareness" id="Ec1Sfc6E9cO8bSWa9kFR-0">
          <mxCell style="label;whiteSpace=wrap;html=1;rounded=0;glass=0;treeFolding=1;treeMoving=1;" parent="aBYGzrm7MAsTsmHFoliY-2" vertex="1">
            <mxGeometry x="840" y="429" width="180" height="100" as="geometry" />
          </mxCell>
        </UserObject>
        <mxCell id="Ec1Sfc6E9cO8bSWa9kFR-1" value="" style="endArrow=blockThin;endFill=1;fontSize=11;edgeStyle=elbowEdgeStyle;elbow=vertical;rounded=0;entryX=0.5;entryY=0;entryDx=0;entryDy=0;" parent="aBYGzrm7MAsTsmHFoliY-2" target="Ec1Sfc6E9cO8bSWa9kFR-0" edge="1">
          <mxGeometry relative="1" as="geometry">
            <mxPoint x="970" y="370" as="sourcePoint" />
            <Array as="points">
              <mxPoint x="940" y="390" />
              <mxPoint x="1150" y="310" />
            </Array>
          </mxGeometry>
        </mxCell>
        <UserObject label="Mackenzie Friesen&lt;br&gt;&lt;i style=&quot;color: gray ; font-size: 11px&quot;&gt;Security Analyst&lt;/i&gt;&lt;br&gt;&lt;a href=&quot;mailto:Mackenzie.Friesen@gov.bc.ca&quot;&gt;Email&lt;/a&gt;" name="Mackenzie Friesen" position="Security Analyst" email="Mackenzie.Friesen@gov.bc.ca" placeholders="1" organization="SECAWARE - Security Awareness" id="Ec1Sfc6E9cO8bSWa9kFR-2">
          <mxCell style="label;whiteSpace=wrap;html=1;rounded=0;glass=0;treeFolding=1;treeMoving=1;" parent="aBYGzrm7MAsTsmHFoliY-2" vertex="1">
            <mxGeometry x="1030" y="429" width="180" height="100" as="geometry" />
          </mxCell>
        </UserObject>
        <mxCell id="Ec1Sfc6E9cO8bSWa9kFR-3" value="" style="endArrow=blockThin;endFill=1;fontSize=11;edgeStyle=elbowEdgeStyle;elbow=vertical;rounded=0;entryX=0.5;entryY=0;entryDx=0;entryDy=0;exitX=0.5;exitY=1;exitDx=0;exitDy=0;" parent="aBYGzrm7MAsTsmHFoliY-2" source="lxsl5r0ngIAoYixiZqqR-0" target="Ec1Sfc6E9cO8bSWa9kFR-2" edge="1">
          <mxGeometry relative="1" as="geometry">
            <mxPoint x="1020" y="310" as="sourcePoint" />
            <Array as="points">
              <mxPoint x="1120" y="390" />
            </Array>
          </mxGeometry>
        </mxCell>
        <UserObject label="Jarin James&lt;br&gt;&lt;i style=&quot;color: gray&quot;&gt;Security Analyst&lt;/i&gt;&lt;br&gt;&lt;a href=&quot;mailto:Jarin.James@gov.bc.ca&quot;&gt;Email&lt;/a&gt;" name="Jarin James" position="Security Analyst" email="Jarin.James@gov.bc.ca" placeholders="1" organization="SECAWARE - Security Awareness" id="Ec1Sfc6E9cO8bSWa9kFR-4">
          <mxCell style="label;whiteSpace=wrap;html=1;rounded=0;glass=0;treeFolding=1;treeMoving=1;" parent="aBYGzrm7MAsTsmHFoliY-2" vertex="1">
            <mxGeometry x="1220" y="429" width="180" height="100" as="geometry" />
          </mxCell>
        </UserObject>
        <mxCell id="Ec1Sfc6E9cO8bSWa9kFR-5" value="" style="endArrow=blockThin;endFill=1;fontSize=11;edgeStyle=elbowEdgeStyle;elbow=vertical;rounded=0;exitX=0.5;exitY=1;exitDx=0;exitDy=0;" parent="aBYGzrm7MAsTsmHFoliY-2" source="lxsl5r0ngIAoYixiZqqR-0" target="Ec1Sfc6E9cO8bSWa9kFR-6" edge="1">
          <mxGeometry relative="1" as="geometry">
            <mxPoint x="1020" y="310" as="sourcePoint" />
            <Array as="points">
              <mxPoint x="1110" y="390" />
              <mxPoint x="1150" y="310" />
            </Array>
          </mxGeometry>
        </mxCell>
        <UserObject label="Kristina Petrosyan&lt;br&gt;&lt;i style=&quot;color: gray&quot;&gt;Senior Security Analyst&lt;/i&gt;&lt;br&gt;&lt;a href=&quot;mailto:Kristina.Petrosyan@gov.bc.ca&quot;&gt;Email&lt;/a&gt;" name="Kristina Petrosyan" position="Senior Security Analyst" email="Kristina.Petrosyan@gov.bc.ca" placeholders="1" organization="SECAWARE - Security Awareness" id="Ec1Sfc6E9cO8bSWa9kFR-6">
          <mxCell style="label;whiteSpace=wrap;html=1;rounded=0;glass=0;treeFolding=1;treeMoving=1;" parent="aBYGzrm7MAsTsmHFoliY-2" vertex="1">
            <mxGeometry x="1410" y="429" width="180" height="100" as="geometry" />
          </mxCell>
        </UserObject>
        <mxCell id="Ec1Sfc6E9cO8bSWa9kFR-7" value="" style="endArrow=blockThin;endFill=1;fontSize=11;edgeStyle=elbowEdgeStyle;elbow=vertical;rounded=0;exitX=0.5;exitY=1;exitDx=0;exitDy=0;" parent="aBYGzrm7MAsTsmHFoliY-2" source="lxsl5r0ngIAoYixiZqqR-0" target="Ec1Sfc6E9cO8bSWa9kFR-8" edge="1">
          <mxGeometry relative="1" as="geometry">
            <mxPoint x="1090" y="330" as="sourcePoint" />
            <Array as="points">
              <mxPoint x="1090" y="390" />
              <mxPoint x="1150" y="310" />
            </Array>
          </mxGeometry>
        </mxCell>
        <UserObject label="Monika Weatherly&lt;br&gt;&lt;i style=&quot;color: gray&quot;&gt;Security Analyst&lt;/i&gt;&lt;br&gt;&lt;a href=&quot;mailto:&quot;&gt;Email&lt;/a&gt;" name="Monika Weatherly" position="Security Analyst" email="" placeholders="1" organization="SECAWARE - Security Awareness" id="Ec1Sfc6E9cO8bSWa9kFR-8">
          <mxCell style="label;whiteSpace=wrap;html=1;rounded=0;glass=0;treeFolding=1;treeMoving=1;" parent="aBYGzrm7MAsTsmHFoliY-2" vertex="1">
            <mxGeometry x="1600" y="429" width="210" height="100" as="geometry" />
          </mxCell>
        </UserObject>
        <mxCell id="Ec1Sfc6E9cO8bSWa9kFR-10" style="edgeStyle=orthogonalEdgeStyle;rounded=0;orthogonalLoop=1;jettySize=auto;html=1;exitX=0.5;exitY=1;exitDx=0;exitDy=0;" parent="aBYGzrm7MAsTsmHFoliY-2" source="lxsl5r0ngIAoYixiZqqR-0" edge="1">
          <mxGeometry relative="1" as="geometry">
            <mxPoint x="1311" y="430" as="targetPoint" />
            <Array as="points">
              <mxPoint x="970" y="390" />
              <mxPoint x="1311" y="390" />
            </Array>
          </mxGeometry>
        </mxCell>
      </root>
    </mxGraphModel>
  </diagram>
  <diagram id="iJ8oZhVi4A6zWBfsme-V" name="Access and Directory Management Services">
    <mxGraphModel dx="1543" dy="643" grid="1" gridSize="10" guides="1" tooltips="1" connect="1" arrows="1" fold="1" page="1" pageScale="1" pageWidth="850" pageHeight="1100" math="0" shadow="0">
      <root>
        <mxCell id="N-BHXD9uO94G_v4G9a9I-0" />
        <mxCell id="N-BHXD9uO94G_v4G9a9I-1" parent="N-BHXD9uO94G_v4G9a9I-0" />
        <mxCell id="7XG-mAJkzpiDxBTZkSnl-0" value="Access and Directory Management Services&amp;nbsp;" style="swimlane;html=1;startSize=20;horizontal=1;containerType=tree;glass=0;" parent="N-BHXD9uO94G_v4G9a9I-1" vertex="1">
          <mxGeometry x="101" y="161" width="1159" height="700" as="geometry" />
        </mxCell>
        <UserObject label="Jesse Piccin&lt;br&gt;&lt;i style=&quot;font-size: 11px&quot;&gt;&lt;font color=&quot;#5e5e5e&quot;&gt;Director, Access and Directory Management Services&lt;/font&gt;&lt;/i&gt;&lt;br&gt;&lt;a href=&quot;mailto:%email%&quot;&gt;Email&lt;/a&gt;" placeholders="1" Name="Jesse Piccin" Position="Director" Organization="ADMS - Access &amp; Directory Management Services" email="Jesse.Piccin@gov.bc.ca" id="7XG-mAJkzpiDxBTZkSnl-1">
          <mxCell style="label;whiteSpace=wrap;html=1;rounded=0;glass=0;treeMoving=1;treeFolding=1;" parent="7XG-mAJkzpiDxBTZkSnl-0" vertex="1">
            <mxGeometry x="390" y="50" width="180" height="70" as="geometry" />
          </mxCell>
        </UserObject>
        <mxCell id="7XG-mAJkzpiDxBTZkSnl-2" value="" style="endArrow=blockThin;endFill=1;fontSize=11;edgeStyle=elbowEdgeStyle;elbow=vertical;rounded=0;exitX=0.25;exitY=1;exitDx=0;exitDy=0;entryX=1;entryY=0.5;entryDx=0;entryDy=0;" parent="7XG-mAJkzpiDxBTZkSnl-0" source="7XG-mAJkzpiDxBTZkSnl-1" target="7XG-mAJkzpiDxBTZkSnl-3" edge="1">
          <mxGeometry relative="1" as="geometry">
            <mxPoint x="380" y="159" as="targetPoint" />
            <Array as="points">
              <mxPoint x="310" y="220" />
            </Array>
          </mxGeometry>
        </mxCell>
        <UserObject label="Chris Flight&lt;br&gt;&lt;i style=&quot;color: gray ; font-size: 11px&quot;&gt;Senior Technical Architect, IDIR Authentication Services&lt;br&gt;&lt;/i&gt;&lt;a href=&quot;mailto:%email%&quot;&gt;Email&lt;/a&gt;" placeholders="1" Name="Chris Flight" Position="Senior Technical Architect" Organization="IDIR - IDIR Authentication Services" email="chris.flight@gov.bc.ca" id="7XG-mAJkzpiDxBTZkSnl-3">
          <mxCell style="label;whiteSpace=wrap;html=1;rounded=0;glass=0;treeFolding=1;treeMoving=1;" parent="7XG-mAJkzpiDxBTZkSnl-0" vertex="1">
            <mxGeometry x="190" y="180" width="190" height="80" as="geometry" />
          </mxCell>
        </UserObject>
        <UserObject label="Christine Sutherland&lt;br&gt;&lt;i style=&quot;font-size: 11px&quot;&gt;&lt;font color=&quot;#5e5e5e&quot;&gt;Senior Technical Analyst, WAM &lt;/font&gt;&lt;font color=&quot;#808080&quot;&gt;Web Access Management&lt;/font&gt;&lt;/i&gt;&lt;br&gt;&lt;a href=&quot;mailto:Jesse.Piccin@gov.bc.ca&quot;&gt;Email&lt;/a&gt;" placeholders="1" Name="Christine Sutherland" Position="Senior Technical Analyst" Organization="WAM - Web Access Management" email="Christine.Sutherland@gov.bc.ca" id="3w2OpVWbwlHzZPCRK1aW-4">
          <mxCell style="label;whiteSpace=wrap;html=1;rounded=0;glass=0;treeMoving=1;treeFolding=1;" parent="7XG-mAJkzpiDxBTZkSnl-0" vertex="1">
            <mxGeometry x="540" y="180" width="200" height="80" as="geometry" />
          </mxCell>
        </UserObject>
        <mxCell id="3w2OpVWbwlHzZPCRK1aW-7" value="" style="endArrow=blockThin;endFill=1;fontSize=11;edgeStyle=elbowEdgeStyle;elbow=vertical;rounded=0;exitX=0.5;exitY=1;exitDx=0;exitDy=0;" parent="7XG-mAJkzpiDxBTZkSnl-0" source="7XG-mAJkzpiDxBTZkSnl-1" edge="1">
          <mxGeometry relative="1" as="geometry">
            <mxPoint x="445" y="130" as="sourcePoint" />
            <mxPoint x="540" y="220" as="targetPoint" />
            <Array as="points">
              <mxPoint x="490" y="220" />
            </Array>
          </mxGeometry>
        </mxCell>
        <UserObject label="Manas Bhattacharya&lt;br&gt;&lt;i style=&quot;font-size: 11px&quot;&gt;&lt;font color=&quot;#5e5e5e&quot;&gt;Technical Analyst, WAM &lt;/font&gt;&lt;font color=&quot;#808080&quot;&gt;Web Access Management&lt;/font&gt;&lt;/i&gt;&lt;br&gt;&lt;a href=&quot;mailto:Jesse.Piccin@gov.bc.ca&quot;&gt;Email&lt;/a&gt;" placeholders="1" Name="Manas Bhattacharya" Position="Technical Analyst" Organization="WAM - Web Access Management" email="Manas.Bhattacharya@gov.bc.ca" id="3w2OpVWbwlHzZPCRK1aW-10">
          <mxCell style="label;whiteSpace=wrap;html=1;rounded=0;glass=0;treeMoving=1;treeFolding=1;" parent="7XG-mAJkzpiDxBTZkSnl-0" vertex="1">
            <mxGeometry x="540" y="310" width="200" height="80" as="geometry" />
          </mxCell>
        </UserObject>
        <UserObject label="&lt;font&gt;Eric Tse&amp;nbsp;&lt;br&gt;&lt;font color=&quot;#5e5e5e&quot; style=&quot;font-size: 11px&quot;&gt;&lt;i&gt;Technical Analyst, WAM &lt;/i&gt;&lt;/font&gt;&lt;/font&gt;&lt;font color=&quot;#808080&quot; style=&quot;font-size: 11px ; font-style: italic&quot;&gt;Web Access Management&lt;/font&gt;&lt;br&gt;&lt;a href=&quot;mailto:Jesse.Piccin@gov.bc.ca&quot;&gt;Email&lt;/a&gt;" placeholders="1" Name="Eric Tse" Position="Technical Analyst" Organization="WAM - Web Access Management" email="Eric.Tse@gov.bc.ca" id="3w2OpVWbwlHzZPCRK1aW-11">
          <mxCell style="label;whiteSpace=wrap;html=1;rounded=0;glass=0;treeMoving=1;treeFolding=1;" parent="7XG-mAJkzpiDxBTZkSnl-0" vertex="1">
            <mxGeometry x="540" y="440" width="200" height="80" as="geometry" />
          </mxCell>
        </UserObject>
        <UserObject label="Peter Kremer&lt;br&gt;&lt;i style=&quot;font-size: 11px&quot;&gt;&lt;font color=&quot;#5e5e5e&quot;&gt;Technical Analyst, WAM &lt;/font&gt;&lt;font color=&quot;#808080&quot;&gt;Web Access Management&lt;/font&gt;&lt;/i&gt;&lt;br&gt;&lt;a href=&quot;mailto:Jesse.Piccin@gov.bc.ca&quot;&gt;Email&lt;/a&gt;" placeholders="1" Name="Peter Kremer" Position="Technical Analyst" Organization="WAM - Web Access Management" email="" id="3w2OpVWbwlHzZPCRK1aW-20">
          <mxCell style="label;whiteSpace=wrap;html=1;rounded=0;glass=0;treeMoving=1;treeFolding=1;" parent="7XG-mAJkzpiDxBTZkSnl-0" vertex="1">
            <mxGeometry x="540" y="560" width="200" height="80" as="geometry" />
          </mxCell>
        </UserObject>
        <mxCell id="3w2OpVWbwlHzZPCRK1aW-21" value="" style="endArrow=blockThin;endFill=1;fontSize=11;edgeStyle=elbowEdgeStyle;elbow=vertical;rounded=0;entryX=0;entryY=0.5;entryDx=0;entryDy=0;exitX=0.5;exitY=1;exitDx=0;exitDy=0;" parent="7XG-mAJkzpiDxBTZkSnl-0" source="7XG-mAJkzpiDxBTZkSnl-1" target="3w2OpVWbwlHzZPCRK1aW-10" edge="1">
          <mxGeometry relative="1" as="geometry">
            <mxPoint x="445" y="130" as="sourcePoint" />
            <mxPoint x="137.97000000000003" y="190" as="targetPoint" />
            <Array as="points">
              <mxPoint x="480" y="350" />
            </Array>
          </mxGeometry>
        </mxCell>
        <mxCell id="3w2OpVWbwlHzZPCRK1aW-22" value="" style="endArrow=blockThin;endFill=1;fontSize=11;edgeStyle=elbowEdgeStyle;elbow=vertical;rounded=0;entryX=0;entryY=0.5;entryDx=0;entryDy=0;exitX=0.5;exitY=1;exitDx=0;exitDy=0;" parent="7XG-mAJkzpiDxBTZkSnl-0" source="7XG-mAJkzpiDxBTZkSnl-1" target="3w2OpVWbwlHzZPCRK1aW-11" edge="1">
          <mxGeometry relative="1" as="geometry">
            <mxPoint x="455" y="140" as="sourcePoint" />
            <mxPoint x="147.97000000000003" y="200" as="targetPoint" />
            <Array as="points">
              <mxPoint x="509" y="480" />
            </Array>
          </mxGeometry>
        </mxCell>
        <UserObject label="Justin Thomson&lt;br&gt;&lt;i style=&quot;font-size: 11px&quot;&gt;&lt;font color=&quot;#5e5e5e&quot;&gt;Technical Support Analyst, ADMSSD -&amp;nbsp; Services Delivery&lt;/font&gt;&lt;/i&gt;&lt;br&gt;&lt;a href=&quot;mailto:Jesse.Piccin@gov.bc.ca&quot;&gt;Email&lt;/a&gt;" placeholders="1" Name="Justin Thomson" Position="Technical Support Analyst" Organization="ADMSSD - Service Delivery" email="Justin.Thomson@gov.bc.ca" id="3w2OpVWbwlHzZPCRK1aW-37">
          <mxCell style="label;whiteSpace=wrap;html=1;rounded=0;glass=0;treeMoving=1;treeFolding=1;" parent="7XG-mAJkzpiDxBTZkSnl-0" vertex="1">
            <mxGeometry x="779" y="560" width="200" height="80" as="geometry" />
          </mxCell>
        </UserObject>
        <mxCell id="3w2OpVWbwlHzZPCRK1aW-40" value="" style="endArrow=blockThin;endFill=1;fontSize=11;edgeStyle=elbowEdgeStyle;elbow=vertical;rounded=0;exitX=1;exitY=0.5;exitDx=0;exitDy=0;" parent="7XG-mAJkzpiDxBTZkSnl-0" target="3w2OpVWbwlHzZPCRK1aW-37" edge="1" source="7XG-mAJkzpiDxBTZkSnl-1">
          <mxGeometry relative="1" as="geometry">
            <mxPoint x="780" y="150" as="sourcePoint" />
            <mxPoint x="800" y="600" as="targetPoint" />
            <Array as="points">
              <mxPoint x="1029" y="339" />
              <mxPoint x="709" y="79" />
              <mxPoint x="770" y="400" />
              <mxPoint x="780" y="230" />
              <mxPoint x="820" y="150" />
              <mxPoint x="640" y="150" />
              <mxPoint x="780" y="560" />
            </Array>
          </mxGeometry>
        </mxCell>
        <UserObject label="Jonathan Borrows&lt;br&gt;&lt;i style=&quot;font-size: 11px&quot;&gt;&lt;font color=&quot;#5e5e5e&quot;&gt;Senior Application Specialist, ADMSSD - Services Delivery&lt;/font&gt;&lt;/i&gt;&lt;br&gt;&lt;a href=&quot;mailto:Jesse.Piccin@gov.bc.ca&quot;&gt;Email&lt;/a&gt;" placeholders="1" Name="Jonathan Borrows" Position="Senior Application Specialist" Organization="ADMSSD - Service Delivery" email="Jonathan.Borrows@gov.bc.ca" id="3w2OpVWbwlHzZPCRK1aW-44">
          <mxCell style="label;whiteSpace=wrap;html=1;rounded=0;glass=0;treeMoving=1;treeFolding=1;" parent="7XG-mAJkzpiDxBTZkSnl-0" vertex="1">
            <mxGeometry x="779" y="180" width="200" height="80" as="geometry" />
          </mxCell>
        </UserObject>
        <UserObject label="Tonja Quinn&lt;br&gt;&lt;i style=&quot;font-size: 11px&quot;&gt;&lt;font color=&quot;#5e5e5e&quot;&gt;Senior Technical Service Lead, ADMSSD - Services Delivery&lt;/font&gt;&lt;/i&gt;&lt;br&gt;&lt;a href=&quot;mailto:Jesse.Piccin@gov.bc.ca&quot;&gt;Email&lt;/a&gt;" placeholders="1" Name="Tonja Quinn" Position="Senior Technical Service Lead" Organization="ADMSSD - Service Delivery" email="Tonja.Quinn@gov.bc.ca" id="3w2OpVWbwlHzZPCRK1aW-45">
          <mxCell style="label;whiteSpace=wrap;html=1;rounded=0;glass=0;treeMoving=1;treeFolding=1;" parent="7XG-mAJkzpiDxBTZkSnl-0" vertex="1">
            <mxGeometry x="779" y="310" width="200" height="80" as="geometry" />
          </mxCell>
        </UserObject>
        <UserObject label="Kristine L Hughes&lt;br&gt;&lt;i style=&quot;font-size: 11px&quot;&gt;&lt;font color=&quot;#5e5e5e&quot;&gt;Technical Support Analyst, ADMSSD - Services Delivery&lt;/font&gt;&lt;/i&gt;&lt;br&gt;&lt;a href=&quot;mailto:Jesse.Piccin@gov.bc.ca&quot;&gt;Email&lt;/a&gt;" placeholders="1" Name="Kristine L Hughes" Position="Technical Support Analyst" Organization="ADMSSD - Service Delivery" email="Kristine.Hughes@gov.bc.ca" id="3w2OpVWbwlHzZPCRK1aW-46">
          <mxCell style="label;whiteSpace=wrap;html=1;rounded=0;glass=0;treeMoving=1;treeFolding=1;" parent="7XG-mAJkzpiDxBTZkSnl-0" vertex="1">
            <mxGeometry x="779" y="440" width="200" height="80" as="geometry" />
          </mxCell>
        </UserObject>
        <mxCell id="3w2OpVWbwlHzZPCRK1aW-48" value="" style="endArrow=classic;html=1;startSize=6;endSize=6;sourcePerimeterSpacing=0;targetPerimeterSpacing=0;entryX=1;entryY=0.5;entryDx=0;entryDy=0;exitX=1;exitY=0.5;exitDx=0;exitDy=0;rounded=0;" parent="7XG-mAJkzpiDxBTZkSnl-0" edge="1" target="3w2OpVWbwlHzZPCRK1aW-45" source="7XG-mAJkzpiDxBTZkSnl-1">
          <mxGeometry width="50" height="50" relative="1" as="geometry">
            <mxPoint x="1089" y="350" as="sourcePoint" />
            <mxPoint x="1139" y="349.29" as="targetPoint" />
            <Array as="points">
              <mxPoint x="1029" y="85" />
              <mxPoint x="1029" y="350" />
            </Array>
          </mxGeometry>
        </mxCell>
        <mxCell id="3w2OpVWbwlHzZPCRK1aW-49" value="" style="endArrow=classic;html=1;startSize=6;endSize=6;sourcePerimeterSpacing=0;targetPerimeterSpacing=0;entryX=1;entryY=0.5;entryDx=0;entryDy=0;exitX=1;exitY=0.5;exitDx=0;exitDy=0;rounded=0;" parent="7XG-mAJkzpiDxBTZkSnl-0" target="3w2OpVWbwlHzZPCRK1aW-46" edge="1" source="7XG-mAJkzpiDxBTZkSnl-1">
          <mxGeometry width="50" height="50" relative="1" as="geometry">
            <mxPoint x="1089" y="480" as="sourcePoint" />
            <mxPoint x="840" y="480" as="targetPoint" />
            <Array as="points">
              <mxPoint x="1029" y="85" />
              <mxPoint x="1029" y="480" />
            </Array>
          </mxGeometry>
        </mxCell>
        <UserObject label="David Jewer&lt;br&gt;&lt;i style=&quot;color: rgb(128 , 128 , 128) ; font-size: 11px&quot;&gt;Senior Technical Analyst, IDIR Authentication Services&lt;/i&gt;&lt;br&gt;&lt;a href=&quot;mailto:%email%&quot;&gt;Email&lt;/a&gt;" placeholders="1" Name="David Jewer" Position="Senior Technical Analyst" Organization="IDIR - IDIR Authentication Services" email="David.Jewer@gov.bc.ca" id="7XG-mAJkzpiDxBTZkSnl-5">
          <mxCell style="label;whiteSpace=wrap;html=1;rounded=0;glass=0;treeFolding=1;treeMoving=1;" parent="7XG-mAJkzpiDxBTZkSnl-0" vertex="1">
            <mxGeometry x="190" y="289" width="190" height="80" as="geometry" />
          </mxCell>
        </UserObject>
        <mxCell id="7XG-mAJkzpiDxBTZkSnl-6" value="" style="endArrow=blockThin;endFill=1;fontSize=11;edgeStyle=elbowEdgeStyle;elbow=vertical;rounded=0;exitX=0.25;exitY=1;exitDx=0;exitDy=0;entryX=1;entryY=0.5;entryDx=0;entryDy=0;" parent="7XG-mAJkzpiDxBTZkSnl-0" source="7XG-mAJkzpiDxBTZkSnl-1" edge="1" target="7XG-mAJkzpiDxBTZkSnl-5">
          <mxGeometry relative="1" as="geometry">
            <mxPoint x="440" y="119" as="sourcePoint" />
            <mxPoint x="130" y="309" as="targetPoint" />
            <Array as="points">
              <mxPoint x="410" y="329" />
              <mxPoint x="440" y="169" />
              <mxPoint x="300" y="419" />
            </Array>
          </mxGeometry>
        </mxCell>
        <UserObject label="Bruce O&#39;Hara&lt;br&gt;&lt;i style=&quot;font-size: 11px ; color: gray&quot;&gt;Senior Technical Analyst,&amp;nbsp;&lt;/i&gt;&lt;i style=&quot;font-size: 11px ; color: rgb(128 , 128 , 128)&quot;&gt;IDIR Authentication Services&lt;/i&gt;&lt;br&gt;&lt;a href=&quot;mailto:%email%&quot;&gt;Email&lt;/a&gt;" placeholders="1" Name="Bruce O&#39;Hara" Position="Senior Technical Analyst" Organization="IDIR - IDIR Authentication Services" email="Bruce.K.OHara@gov.bc.ca" id="7XG-mAJkzpiDxBTZkSnl-7">
          <mxCell style="label;whiteSpace=wrap;html=1;rounded=0;glass=0;" parent="7XG-mAJkzpiDxBTZkSnl-0" vertex="1">
            <mxGeometry x="190" y="429" width="185" height="80" as="geometry" />
          </mxCell>
        </UserObject>
        <mxCell id="7XG-mAJkzpiDxBTZkSnl-4" value="" style="endArrow=blockThin;endFill=1;fontSize=11;edgeStyle=elbowEdgeStyle;elbow=vertical;rounded=0;exitX=0.25;exitY=1;exitDx=0;exitDy=0;entryX=1;entryY=0.5;entryDx=0;entryDy=0;" parent="7XG-mAJkzpiDxBTZkSnl-0" source="7XG-mAJkzpiDxBTZkSnl-1" target="7XG-mAJkzpiDxBTZkSnl-7" edge="1">
          <mxGeometry relative="1" as="geometry">
            <Array as="points">
              <mxPoint x="430" y="469" />
              <mxPoint x="320" y="279" />
            </Array>
            <mxPoint x="400" y="449" as="targetPoint" />
          </mxGeometry>
        </mxCell>
        <UserObject label="Steve Oates&lt;br&gt;&lt;i style=&quot;font-size: 11px&quot;&gt;&lt;font color=&quot;#5e5e5e&quot;&gt;Senior Technical Analyst,&amp;nbsp;&lt;/font&gt;&lt;/i&gt;&lt;i style=&quot;font-size: 11px ; color: rgb(128 , 128 , 128)&quot;&gt;IDIR Authentication Services&lt;/i&gt;&lt;br&gt;&lt;a href=&quot;mailto:Jesse.Piccin@gov.bc.ca&quot;&gt;Email&lt;/a&gt;" placeholders="1" Name="Steve Oates" Position="Senior Technical Analyst" Organization="IDIR - IDIR Authentication Services" email="Steve.Oates@gov.bc.ca" id="3w2OpVWbwlHzZPCRK1aW-2">
          <mxCell style="label;whiteSpace=wrap;html=1;rounded=0;glass=0;treeMoving=1;treeFolding=1;" parent="7XG-mAJkzpiDxBTZkSnl-0" vertex="1">
            <mxGeometry x="187.5" y="565" width="190" height="75" as="geometry" />
          </mxCell>
        </UserObject>
        <mxCell id="3w2OpVWbwlHzZPCRK1aW-3" value="" style="endArrow=blockThin;endFill=1;fontSize=11;edgeStyle=elbowEdgeStyle;elbow=vertical;rounded=0;entryX=1;entryY=0.5;entryDx=0;entryDy=0;exitX=0.25;exitY=1;exitDx=0;exitDy=0;" parent="7XG-mAJkzpiDxBTZkSnl-0" source="7XG-mAJkzpiDxBTZkSnl-1" target="3w2OpVWbwlHzZPCRK1aW-2" edge="1">
          <mxGeometry relative="1" as="geometry">
            <mxPoint x="435" y="159" as="sourcePoint" />
            <mxPoint x="590" y="189" as="targetPoint" />
            <Array as="points">
              <mxPoint x="410" y="603" />
            </Array>
          </mxGeometry>
        </mxCell>
        <mxCell id="3w2OpVWbwlHzZPCRK1aW-23" value="" style="endArrow=blockThin;endFill=1;fontSize=11;edgeStyle=elbowEdgeStyle;elbow=vertical;rounded=0;entryX=0;entryY=0.5;entryDx=0;entryDy=0;exitX=0.5;exitY=1;exitDx=0;exitDy=0;" parent="7XG-mAJkzpiDxBTZkSnl-0" edge="1" target="3w2OpVWbwlHzZPCRK1aW-20" source="7XG-mAJkzpiDxBTZkSnl-1">
          <mxGeometry relative="1" as="geometry">
            <mxPoint x="479" y="121" as="sourcePoint" />
            <mxPoint x="539" y="602" as="targetPoint" />
            <Array as="points">
              <mxPoint x="489" y="601" />
            </Array>
          </mxGeometry>
        </mxCell>
        <mxCell id="3w2OpVWbwlHzZPCRK1aW-47" value="" style="endArrow=classic;html=1;startSize=14;endSize=6;sourcePerimeterSpacing=8;targetPerimeterSpacing=0;entryX=1;entryY=0.5;entryDx=0;entryDy=0;exitX=1;exitY=0.5;exitDx=0;exitDy=0;rounded=0;" parent="7XG-mAJkzpiDxBTZkSnl-0" target="3w2OpVWbwlHzZPCRK1aW-44" edge="1" source="7XG-mAJkzpiDxBTZkSnl-1">
          <mxGeometry width="50" height="50" relative="1" as="geometry">
            <mxPoint x="1089" y="220" as="sourcePoint" />
            <mxPoint x="1049" y="220" as="targetPoint" />
            <Array as="points">
              <mxPoint x="1029" y="85" />
              <mxPoint x="1029" y="220" />
            </Array>
          </mxGeometry>
        </mxCell>
      </root>
    </mxGraphModel>
  </diagram>
  <diagram id="-08hfGk7P-e_BbuSAjP5" name="IT Security Operation &amp; Security Investigation and Incident Response Group">
    <mxGraphModel dx="1800" dy="750" grid="1" gridSize="10" guides="1" tooltips="1" connect="1" arrows="1" fold="1" page="1" pageScale="1" pageWidth="850" pageHeight="1100" math="0" shadow="0">
      <root>
        <mxCell id="WtG3LAvD9DvlGs4hOhJb-0" />
        <mxCell id="WtG3LAvD9DvlGs4hOhJb-1" parent="WtG3LAvD9DvlGs4hOhJb-0" />
        <mxCell id="3m5bOjv-PkjGc6sbSOSx-8" value="IT Security Operation &amp;amp; Security Investigation and Incident Response Group" style="swimlane;html=1;startSize=20;horizontal=1;containerType=tree;glass=0;" vertex="1" parent="WtG3LAvD9DvlGs4hOhJb-1">
          <mxGeometry x="90" y="105" width="1290" height="720" as="geometry" />
        </mxCell>
        <UserObject label="Dale Land&lt;br&gt;&lt;font color=&quot;#808080&quot;&gt;&lt;span style=&quot;font-size: 11px&quot;&gt;&lt;i&gt;Director, Cyber Intelligence and Investigations&lt;br&gt;&lt;/i&gt;&lt;/span&gt;&lt;/font&gt;&lt;a href=&quot;mailto:%email%&quot;&gt;Email&lt;/a&gt;" placeholders="1" name="Dale Land" position="Director" organization="ITSECOPS - IT Security Operations" email="Dale.Land@gov.bc.ca" id="3m5bOjv-PkjGc6sbSOSx-9">
          <mxCell style="label;whiteSpace=wrap;html=1;rounded=0;glass=0;treeMoving=1;treeFolding=1;" vertex="1" parent="3m5bOjv-PkjGc6sbSOSx-8">
            <mxGeometry x="260" y="50" width="180" height="70" as="geometry" />
          </mxCell>
        </UserObject>
        <mxCell id="zzXilh6pD7ma3MuhVJhG-0" value="" style="edgeStyle=none;rounded=0;orthogonalLoop=1;jettySize=auto;html=1;" edge="1" source="3m5bOjv-PkjGc6sbSOSx-9" target="zzXilh6pD7ma3MuhVJhG-1" parent="3m5bOjv-PkjGc6sbSOSx-8">
          <mxGeometry relative="1" as="geometry" />
        </mxCell>
        <UserObject label="Chris Chen&lt;br&gt;&lt;font color=&quot;#808080&quot;&gt;&lt;span style=&quot;font-size: 11px&quot;&gt;&lt;i&gt;Manager, IT Security Operations&lt;br&gt;&lt;/i&gt;&lt;/span&gt;&lt;/font&gt;&lt;a href=&quot;mailto:%email%&quot;&gt;Email&lt;/a&gt;" placeholders="1" name="Chris Chen" position="Manager" organization="ITSECOPS - IT Security Operations" email="Chris.L.Chen@gov.bc.ca" id="zzXilh6pD7ma3MuhVJhG-1">
          <mxCell style="label;whiteSpace=wrap;html=1;rounded=0;glass=0;treeMoving=1;treeFolding=1;" vertex="1" parent="3m5bOjv-PkjGc6sbSOSx-8">
            <mxGeometry x="260" y="160" width="180" height="70" as="geometry" />
          </mxCell>
        </UserObject>
        <mxCell id="zzXilh6pD7ma3MuhVJhG-2" value="" style="edgeStyle=none;rounded=0;orthogonalLoop=1;jettySize=auto;html=1;" edge="1" target="zzXilh6pD7ma3MuhVJhG-3" source="zzXilh6pD7ma3MuhVJhG-1" parent="3m5bOjv-PkjGc6sbSOSx-8">
          <mxGeometry relative="1" as="geometry">
            <mxPoint x="440" y="230" as="sourcePoint" />
          </mxGeometry>
        </mxCell>
        <UserObject label="Austin Henry&lt;br&gt;&lt;font color=&quot;#808080&quot;&gt;&lt;span style=&quot;font-size: 11px&quot;&gt;&lt;i&gt;Architect/Team Lead&lt;br&gt;&lt;/i&gt;&lt;/span&gt;&lt;/font&gt;&lt;a href=&quot;mailto:%email%&quot;&gt;Email&lt;/a&gt;" placeholders="1" name="Austin Henry" position="Architect/Team Lead" organization="ITSECOPS - IT Security Operations" email="Austin.Henry@gov.bc.ca" id="zzXilh6pD7ma3MuhVJhG-3">
          <mxCell style="label;whiteSpace=wrap;html=1;rounded=0;glass=0;treeMoving=1;treeFolding=1;" vertex="1" parent="3m5bOjv-PkjGc6sbSOSx-8">
            <mxGeometry x="260" y="270" width="180" height="70" as="geometry" />
          </mxCell>
        </UserObject>
        <mxCell id="zzXilh6pD7ma3MuhVJhG-6" value="" style="edgeStyle=none;rounded=0;orthogonalLoop=1;jettySize=auto;html=1;exitX=0.5;exitY=1;exitDx=0;exitDy=0;" edge="1" target="zzXilh6pD7ma3MuhVJhG-7" source="zzXilh6pD7ma3MuhVJhG-1" parent="3m5bOjv-PkjGc6sbSOSx-8">
          <mxGeometry relative="1" as="geometry">
            <mxPoint x="440" y="230" as="sourcePoint" />
            <Array as="points">
              <mxPoint x="350" y="250" />
              <mxPoint x="540" y="250" />
            </Array>
          </mxGeometry>
        </mxCell>
        <UserObject label="Jackie K Campbell&lt;br&gt;&lt;i style=&quot;color: rgb(128 , 128 , 128) ; font-size: 11px&quot;&gt;Service Manager&lt;/i&gt;&lt;br&gt;&lt;a href=&quot;mailto:%email%&quot;&gt;Email&lt;/a&gt;" placeholders="1" name="Jackie K Campbell" position="Service Manager" organization="ITSECOPS - IT Security Operations" email="Jackie.Campbell@gov.bc.ca" id="zzXilh6pD7ma3MuhVJhG-7">
          <mxCell style="label;whiteSpace=wrap;html=1;rounded=0;glass=0;treeMoving=1;treeFolding=1;" vertex="1" parent="3m5bOjv-PkjGc6sbSOSx-8">
            <mxGeometry x="450" y="270" width="180" height="70" as="geometry" />
          </mxCell>
        </UserObject>
        <mxCell id="zzXilh6pD7ma3MuhVJhG-8" value="" style="edgeStyle=none;rounded=0;orthogonalLoop=1;jettySize=auto;html=1;exitX=0.5;exitY=1;exitDx=0;exitDy=0;entryX=0.5;entryY=0;entryDx=0;entryDy=0;" edge="1" target="zzXilh6pD7ma3MuhVJhG-9" source="zzXilh6pD7ma3MuhVJhG-1" parent="3m5bOjv-PkjGc6sbSOSx-8">
          <mxGeometry relative="1" as="geometry">
            <mxPoint x="440" y="230" as="sourcePoint" />
            <Array as="points">
              <mxPoint x="350" y="250" />
              <mxPoint x="730" y="250" />
            </Array>
          </mxGeometry>
        </mxCell>
        <UserObject label="James Zhai&lt;br&gt;&lt;font color=&quot;#808080&quot;&gt;&lt;span style=&quot;font-size: 11px&quot;&gt;&lt;i&gt;Senior Security Analyst&lt;br&gt;&lt;/i&gt;&lt;/span&gt;&lt;/font&gt;&lt;a href=&quot;mailto:%email%&quot;&gt;Email&lt;/a&gt;" placeholders="1" name="James Zhai" position="Senior Security Analyst" organization="ITSECOPS - IT Security Operations" email="James.Zhai@gov.bc.ca" id="zzXilh6pD7ma3MuhVJhG-9">
          <mxCell style="label;whiteSpace=wrap;html=1;rounded=0;glass=0;treeMoving=1;treeFolding=1;" vertex="1" parent="3m5bOjv-PkjGc6sbSOSx-8">
            <mxGeometry x="640" y="270" width="180" height="70" as="geometry" />
          </mxCell>
        </UserObject>
        <mxCell id="zzXilh6pD7ma3MuhVJhG-10" value="" style="edgeStyle=none;rounded=0;orthogonalLoop=1;jettySize=auto;html=1;entryX=0.5;entryY=0;entryDx=0;entryDy=0;exitX=0.5;exitY=1;exitDx=0;exitDy=0;" edge="1" target="zzXilh6pD7ma3MuhVJhG-11" source="zzXilh6pD7ma3MuhVJhG-1" parent="3m5bOjv-PkjGc6sbSOSx-8">
          <mxGeometry relative="1" as="geometry">
            <mxPoint x="440" y="230" as="sourcePoint" />
            <Array as="points">
              <mxPoint x="350" y="250" />
              <mxPoint x="920" y="250" />
            </Array>
          </mxGeometry>
        </mxCell>
        <UserObject label="Michael Voller&lt;br&gt;&lt;font color=&quot;#808080&quot;&gt;&lt;span style=&quot;font-size: 11px&quot;&gt;&lt;i&gt;Network Security Architect&lt;br&gt;&lt;/i&gt;&lt;/span&gt;&lt;/font&gt;&lt;a href=&quot;mailto:%email%&quot;&gt;Email&lt;/a&gt;" placeholders="1" name="Michael Voller" position="Network Security Architect" organization="ITSECOPS - IT Security Operations" email="Michael.Voller@gov.bc.ca" id="zzXilh6pD7ma3MuhVJhG-11">
          <mxCell style="label;whiteSpace=wrap;html=1;rounded=0;glass=0;treeMoving=1;treeFolding=1;" vertex="1" parent="3m5bOjv-PkjGc6sbSOSx-8">
            <mxGeometry x="830" y="270" width="180" height="70" as="geometry" />
          </mxCell>
        </UserObject>
        <mxCell id="zzXilh6pD7ma3MuhVJhG-12" value="" style="edgeStyle=none;rounded=0;orthogonalLoop=1;jettySize=auto;html=1;entryX=0;entryY=0.5;entryDx=0;entryDy=0;exitX=0.5;exitY=1;exitDx=0;exitDy=0;" edge="1" target="zzXilh6pD7ma3MuhVJhG-13" source="zzXilh6pD7ma3MuhVJhG-3" parent="3m5bOjv-PkjGc6sbSOSx-8">
          <mxGeometry relative="1" as="geometry">
            <mxPoint x="390" y="360" as="sourcePoint" />
            <Array as="points">
              <mxPoint x="350" y="350" />
              <mxPoint x="190" y="350" />
              <mxPoint x="190" y="405" />
            </Array>
          </mxGeometry>
        </mxCell>
        <UserObject label="Rajeev Dhawan&lt;br&gt;&lt;font color=&quot;#808080&quot;&gt;&lt;span style=&quot;font-size: 11px&quot;&gt;&lt;i&gt;Senior Security Analyst&lt;br&gt;&lt;/i&gt;&lt;/span&gt;&lt;/font&gt;&lt;a href=&quot;mailto:%email%&quot;&gt;Email&lt;/a&gt;" placeholders="1" name="Rajeev Dhawan" position="Senior Security Analyst" organization="ITSECOPS - IT Security Operations" email="Rajeev.Dhawan@gov.bc.ca" id="zzXilh6pD7ma3MuhVJhG-13">
          <mxCell style="label;whiteSpace=wrap;html=1;rounded=0;glass=0;treeMoving=1;treeFolding=1;" vertex="1" parent="3m5bOjv-PkjGc6sbSOSx-8">
            <mxGeometry x="260" y="370" width="180" height="70" as="geometry" />
          </mxCell>
        </UserObject>
        <mxCell id="zzXilh6pD7ma3MuhVJhG-14" value="" style="edgeStyle=none;rounded=0;orthogonalLoop=1;jettySize=auto;html=1;entryX=0;entryY=0.5;entryDx=0;entryDy=0;exitX=0.5;exitY=1;exitDx=0;exitDy=0;" edge="1" target="zzXilh6pD7ma3MuhVJhG-15" source="zzXilh6pD7ma3MuhVJhG-3" parent="3m5bOjv-PkjGc6sbSOSx-8">
          <mxGeometry relative="1" as="geometry">
            <mxPoint x="400" y="360" as="sourcePoint" />
            <Array as="points">
              <mxPoint x="350" y="350" />
              <mxPoint x="190" y="350" />
              <mxPoint x="190" y="505" />
            </Array>
          </mxGeometry>
        </mxCell>
        <UserObject label="Riley Shew&lt;br&gt;&lt;i style=&quot;color: rgb(128 , 128 , 128) ; font-size: 11px&quot;&gt;Senior Network Security Analyst&lt;/i&gt;&lt;br&gt;&lt;a href=&quot;mailto:%email%&quot;&gt;Email&lt;/a&gt;" placeholders="1" name="Riley Shew" position="Senior Network Security Analyst" organization="ITSECOPS - IT Security Operations" email="Riley.Shew@gov.bc.ca" id="zzXilh6pD7ma3MuhVJhG-15">
          <mxCell style="label;whiteSpace=wrap;html=1;rounded=0;glass=0;treeMoving=1;treeFolding=1;" vertex="1" parent="3m5bOjv-PkjGc6sbSOSx-8">
            <mxGeometry x="260" y="470" width="180" height="70" as="geometry" />
          </mxCell>
        </UserObject>
        <mxCell id="zzXilh6pD7ma3MuhVJhG-16" value="" style="edgeStyle=none;rounded=0;orthogonalLoop=1;jettySize=auto;html=1;entryX=0;entryY=0.5;entryDx=0;entryDy=0;" edge="1" target="zzXilh6pD7ma3MuhVJhG-17" parent="3m5bOjv-PkjGc6sbSOSx-8">
          <mxGeometry relative="1" as="geometry">
            <mxPoint x="350" y="340" as="sourcePoint" />
            <mxPoint x="256" y="610" as="targetPoint" />
            <Array as="points">
              <mxPoint x="350" y="350" />
              <mxPoint x="190" y="350" />
              <mxPoint x="190" y="615" />
            </Array>
          </mxGeometry>
        </mxCell>
        <UserObject label="Andrew Eng&lt;br&gt;&lt;font color=&quot;#808080&quot;&gt;&lt;span style=&quot;font-size: 11px&quot;&gt;&lt;i&gt;Network Security Analyst&lt;br&gt;&lt;/i&gt;&lt;/span&gt;&lt;/font&gt;&lt;a href=&quot;mailto:%email%&quot;&gt;Email&lt;/a&gt;" placeholders="1" name="Andrew Eng" position="Network Security Analyst" organization="ITSECOPS - IT Security Operations" email="Andrew.Eng@gov.bc.ca" id="zzXilh6pD7ma3MuhVJhG-17">
          <mxCell style="label;whiteSpace=wrap;html=1;rounded=0;glass=0;treeMoving=1;treeFolding=1;" vertex="1" parent="3m5bOjv-PkjGc6sbSOSx-8">
            <mxGeometry x="260" y="580" width="180" height="70" as="geometry" />
          </mxCell>
        </UserObject>
        <mxCell id="zzXilh6pD7ma3MuhVJhG-18" value="" style="edgeStyle=none;rounded=0;orthogonalLoop=1;jettySize=auto;html=1;exitX=0.5;exitY=1;exitDx=0;exitDy=0;entryX=0.5;entryY=0;entryDx=0;entryDy=0;" edge="1" target="zzXilh6pD7ma3MuhVJhG-19" source="zzXilh6pD7ma3MuhVJhG-9" parent="3m5bOjv-PkjGc6sbSOSx-8">
          <mxGeometry relative="1" as="geometry">
            <mxPoint x="440" y="340" as="sourcePoint" />
            <Array as="points">
              <mxPoint x="730" y="360" />
            </Array>
          </mxGeometry>
        </mxCell>
        <UserObject label="Tim Allen&lt;br&gt;&lt;font color=&quot;#808080&quot;&gt;&lt;span style=&quot;font-size: 11px&quot;&gt;&lt;i&gt;Network Security Analyst&lt;br&gt;&lt;/i&gt;&lt;/span&gt;&lt;/font&gt;&lt;a href=&quot;mailto:%email%&quot;&gt;Email&lt;/a&gt;" placeholders="1" name="Tim Allen" position="Network Security Analyst" organization="ITSECOPS - IT Security Operations" email="Tim.Allen@gov.bc.ca" id="zzXilh6pD7ma3MuhVJhG-19">
          <mxCell style="label;whiteSpace=wrap;html=1;rounded=0;glass=0;treeMoving=1;treeFolding=1;" vertex="1" parent="3m5bOjv-PkjGc6sbSOSx-8">
            <mxGeometry x="640" y="380" width="180" height="70" as="geometry" />
          </mxCell>
        </UserObject>
        <mxCell id="zzXilh6pD7ma3MuhVJhG-20" value="" style="edgeStyle=none;rounded=0;orthogonalLoop=1;jettySize=auto;html=1;entryX=0;entryY=0.5;entryDx=0;entryDy=0;exitX=0.5;exitY=1;exitDx=0;exitDy=0;" edge="1" target="zzXilh6pD7ma3MuhVJhG-21" source="zzXilh6pD7ma3MuhVJhG-11" parent="3m5bOjv-PkjGc6sbSOSx-8">
          <mxGeometry relative="1" as="geometry">
            <mxPoint x="440" y="335" as="sourcePoint" />
            <Array as="points">
              <mxPoint x="920" y="365" />
              <mxPoint x="850" y="365" />
              <mxPoint x="850" y="415" />
            </Array>
          </mxGeometry>
        </mxCell>
        <UserObject label="Greg Dalgliesh&lt;br&gt;&lt;font color=&quot;#808080&quot;&gt;&lt;span style=&quot;font-size: 11px&quot;&gt;&lt;i&gt;Security Analyst&lt;br&gt;&lt;/i&gt;&lt;/span&gt;&lt;/font&gt;&lt;a href=&quot;mailto:%email%&quot;&gt;Email&lt;/a&gt;" placeholders="1" name="Greg Dalgliesh" position="Security Analyst" organization="ITSECOPS - IT Security Operations" email="Greg.Dalgliesh@gov.bc.ca" id="zzXilh6pD7ma3MuhVJhG-21">
          <mxCell style="label;whiteSpace=wrap;html=1;rounded=0;glass=0;treeMoving=1;treeFolding=1;" vertex="1" parent="3m5bOjv-PkjGc6sbSOSx-8">
            <mxGeometry x="890" y="380" width="180" height="70" as="geometry" />
          </mxCell>
        </UserObject>
        <mxCell id="zzXilh6pD7ma3MuhVJhG-22" value="" style="edgeStyle=none;rounded=0;orthogonalLoop=1;jettySize=auto;html=1;entryX=0;entryY=0.5;entryDx=0;entryDy=0;exitX=0.5;exitY=1;exitDx=0;exitDy=0;" edge="1" target="zzXilh6pD7ma3MuhVJhG-23" source="zzXilh6pD7ma3MuhVJhG-11" parent="3m5bOjv-PkjGc6sbSOSx-8">
          <mxGeometry relative="1" as="geometry">
            <mxPoint x="440" y="335" as="sourcePoint" />
            <Array as="points">
              <mxPoint x="920" y="365" />
              <mxPoint x="850" y="365" />
              <mxPoint x="850" y="520" />
            </Array>
          </mxGeometry>
        </mxCell>
        <UserObject label="Matthew Beckwith&lt;br&gt;&lt;font color=&quot;#808080&quot;&gt;&lt;span style=&quot;font-size: 11px&quot;&gt;&lt;i&gt;Senior Security Analyst&lt;br&gt;&lt;/i&gt;&lt;/span&gt;&lt;/font&gt;&lt;a href=&quot;mailto:%email%&quot;&gt;Email&lt;/a&gt;" placeholders="1" name="Matthew Beckwith" position="Senior Security Analyst" organization="ITSECOPS - IT Security Operations" email="Matthew.Beckwith@gov.bc.ca" id="zzXilh6pD7ma3MuhVJhG-23">
          <mxCell style="label;whiteSpace=wrap;html=1;rounded=0;glass=0;treeMoving=1;treeFolding=1;" vertex="1" parent="3m5bOjv-PkjGc6sbSOSx-8">
            <mxGeometry x="890" y="485" width="190" height="70" as="geometry" />
          </mxCell>
        </UserObject>
        <mxCell id="zzXilh6pD7ma3MuhVJhG-24" value="" style="edgeStyle=none;rounded=0;orthogonalLoop=1;jettySize=auto;html=1;entryX=0.5;entryY=0;entryDx=0;entryDy=0;exitX=0.5;exitY=1;exitDx=0;exitDy=0;" edge="1" source="3m5bOjv-PkjGc6sbSOSx-9" target="zzXilh6pD7ma3MuhVJhG-25" parent="3m5bOjv-PkjGc6sbSOSx-8">
          <mxGeometry relative="1" as="geometry">
            <Array as="points">
              <mxPoint x="350" y="135" />
              <mxPoint x="540" y="135" />
            </Array>
          </mxGeometry>
        </mxCell>
        <UserObject label="Alex Loffler&lt;br&gt;&lt;font color=&quot;#808080&quot;&gt;&lt;span style=&quot;font-size: 11px&quot;&gt;&lt;i&gt;Principal Security Architect, IT Security Operations&lt;br&gt;&lt;/i&gt;&lt;/span&gt;&lt;/font&gt;&lt;a href=&quot;mailto:%email%&quot;&gt;Email&lt;/a&gt;" placeholders="1" name="Alex Loffler" position="Principal Security Architect" organization="ITSECOPS - IT Security Operations" email="Alex.Loffler@gov.bc.ca" id="zzXilh6pD7ma3MuhVJhG-25">
          <mxCell style="label;whiteSpace=wrap;html=1;rounded=0;glass=0;treeMoving=1;treeFolding=1;" vertex="1" parent="3m5bOjv-PkjGc6sbSOSx-8">
            <mxGeometry x="450" y="160" width="180" height="70" as="geometry" />
          </mxCell>
        </UserObject>
        <mxCell id="zzXilh6pD7ma3MuhVJhG-26" value="" style="edgeStyle=none;rounded=0;orthogonalLoop=1;jettySize=auto;html=1;entryX=0.5;entryY=0;entryDx=0;entryDy=0;exitX=0.5;exitY=1;exitDx=0;exitDy=0;" edge="1" source="3m5bOjv-PkjGc6sbSOSx-9" target="zzXilh6pD7ma3MuhVJhG-27" parent="3m5bOjv-PkjGc6sbSOSx-8">
          <mxGeometry relative="1" as="geometry">
            <Array as="points">
              <mxPoint x="350" y="135" />
              <mxPoint x="730" y="135" />
            </Array>
          </mxGeometry>
        </mxCell>
        <UserObject label="Gwen Lock&lt;br&gt;&lt;font color=&quot;#808080&quot;&gt;&lt;span style=&quot;font-size: 11px&quot;&gt;&lt;i&gt;Manager, Security Investigations and Incident Response&lt;br&gt;&lt;/i&gt;&lt;/span&gt;&lt;/font&gt;&lt;a href=&quot;mailto:%email%&quot;&gt;Email&lt;/a&gt;" placeholders="1" name="Gwen Lock" position="Manager" organization="SIIRT - Security Investigations and Incident Response" email="Gwen.Lock@gov.bc.ca" id="zzXilh6pD7ma3MuhVJhG-27">
          <mxCell style="label;whiteSpace=wrap;html=1;rounded=0;glass=0;treeMoving=1;treeFolding=1;" vertex="1" parent="3m5bOjv-PkjGc6sbSOSx-8">
            <mxGeometry x="640" y="160" width="180" height="70" as="geometry" />
          </mxCell>
        </UserObject>
      </root>
    </mxGraphModel>
  </diagram>
</mxfile>
